# xmcd CD database file
#
# Track frame offsets:
#	150
#	16308
#	35368
#	53560
#	66470
#	88670
#	105133
#	126483
#	140570
#	158945
#
# Disc length: 2309 seconds
#
# Revision: 0
# Processed by: cddbd v1.5PL3 Copyright (c) Steve Scherf et al.
# Submitted via: CDex 1.50beta8
#
DISCID=8209030a
DTITLE=かしぶち哲郎 - リラのホテル
DYEAR=1900
DGENRE=Rock
TTITLE0=ひまわり
TTITLE1=リラのホテル
TTITLE2=Friends
TTITLE3=冬のバラ
TTITLE4=屋根裏の二匹のねずみ
TTITLE5=Listen to me, Now!
TTITLE6=堕ちた恋
TTITLE7=恋ざんげ
TTITLE8=憂うつな肉体
TTITLE9=春の庭
EXTD=
EXTT0=
EXTT1=
EXTT2=
EXTT3=
EXTT4=
EXTT5=
EXTT6=
EXTT7=
EXTT8=
EXTT9=
PLAYORDER=
